<svg width="340" height="169" viewBox="0 0 340 169" fill="none" xmlns="http://www.w3.org/2000/svg">
<path d="M322.279 4.77501V86.314C290.5 138.872 224.891 144.892 174.856 155.432C161.49 158.256 149.227 161.399 139.013 165.831C138.205 166.178 137.415 166.544 136.646 166.912H118.461V155.432L127.377 131.786V34.178C141.445 24.981 166.726 15.769 212.017 10.901C212.017 10.901 228.569 6.69601 244.232 2.08801H314.292C317.255 2.08801 319.984 3.08301 322.279 4.77501Z" fill="#030C16" fill-opacity="0.3"/>
<path d="M314.365 2.08301H314.288C322.309 2.08301 328.813 9.37601 328.813 18.37V131.785H127.374V18.37C127.374 9.37601 133.865 2.08301 141.884 2.08301H296.37" fill="#030C16"/>
<path d="M314.288 3.82801C311.952 3.82801 311.952 0.338013 314.288 0.338013C315.354 0.360013 316.117 1.13301 316.117 2.08301C316.117 3.04701 315.332 3.82801 314.365 3.82801L314.288 0.338013C323.389 0.409013 330.565 8.49901 330.565 18.37V131.785C330.565 132.749 329.781 133.53 328.813 133.53H127.374C126.407 133.53 125.622 132.749 125.622 131.785V18.37C125.622 8.45401 132.85 0.338013 141.884 0.338013H296.37C297.338 0.338013 298.122 1.11901 298.122 2.08301C298.122 3.04701 297.338 3.82801 296.37 3.82801H141.883C134.884 3.82801 129.125 10.294 129.125 18.37V130.039H327.061V18.37C327.062 10.297 321.291 3.82801 314.288 3.82801Z" fill="#030448"/>
<path d="M319.899 153.679C320.867 153.679 321.651 154.46 321.651 155.424C321.651 156.388 320.867 157.169 319.899 157.169H118.461C117.238 157.169 116.391 155.951 116.821 154.811L125.733 131.171C125.99 130.49 126.643 130.039 127.373 130.039H328.813C329.542 130.039 330.197 130.49 330.453 131.171L339.365 154.811C339.706 155.713 339.247 156.719 338.341 157.058C337.436 157.397 336.426 156.94 336.085 156.037L327.6 133.529H128.587L120.99 153.678H319.899V153.679Z" fill="#030448"/>
<path d="M335.974 155.424C335.974 154.46 336.758 153.679 337.726 153.679C338.694 153.679 339.478 154.46 339.478 155.424V166.918C339.478 167.881 338.694 168.662 337.726 168.662H136.775C135.807 168.662 135.023 167.881 135.023 166.918C135.023 165.954 135.807 165.173 136.775 165.173H335.974V155.424Z" fill="#030448"/>
<path d="M116.71 155.424C116.71 154.46 117.495 153.679 118.462 153.679C119.43 153.679 120.214 154.46 120.214 155.424V166.918C120.214 167.881 119.43 168.662 118.462 168.662C117.495 168.662 116.71 167.881 116.71 166.918V155.424Z" fill="#030448"/>
<path d="M92.558 24.42V132.436C63.078 144.787 29.268 148.605 1.882 154.974C1.794 154.417 1.742 153.823 1.742 153.23V27.177C13.017 24.351 26.737 21.909 43.388 20.112C43.388 20.112 56.827 16.693 70.39 12.75H80.88C87.322 12.75 92.558 17.966 92.558 24.42Z" fill="#030C16" fill-opacity="0.3"/>
<path d="M1.746 46.596V140.874H92.556V28.361H1.746V46.596Z" fill="#030C16"/>
<path d="M3.491 28.361C3.491 29.324 2.71 30.106 1.746 30.106C0.782 30.106 0 29.325 0 28.361V23.009C0 16.368 5.381 11 12.03 11H82.272C88.921 11 94.301 16.368 94.301 23.009V154.643C94.301 161.284 88.92 166.651 82.272 166.651H30.275C29.311 166.651 28.53 165.87 28.53 164.906C28.53 163.943 29.311 163.162 30.275 163.162H82.272C86.995 163.162 90.811 159.355 90.811 154.643V23.009C90.811 18.296 86.995 14.489 82.272 14.489H12.03C7.307 14.489 3.491 18.296 3.491 23.009V28.361Z" fill="#030448"/>
<path d="M0 46.596C0 45.633 0.782 44.851 1.746 44.851C2.71 44.851 3.491 45.632 3.491 46.596V154.644C3.491 159.355 7.307 163.162 12.03 163.162C12.994 163.162 13.775 163.943 13.775 164.906C13.775 165.87 12.994 166.651 12.03 166.651C5.381 166.651 0 161.284 0 154.644V46.596Z" fill="#030448"/>
<path d="M1.746 28.361H92.556V140.874" fill="#030C16"/>
<path d="M90.811 30.105H1.746C0.782 30.105 0 29.324 0 28.36C0 27.396 0.782 26.615 1.746 26.615H92.557C93.521 26.615 94.302 27.396 94.302 28.36V140.873C94.302 141.837 93.521 142.617 92.557 142.617C91.593 142.617 90.812 141.837 90.812 140.873L90.811 30.105Z" fill="#030448"/>
<path d="M1.746 46.596V140.874H74.311" fill="#030C16"/>
<path d="M3.491 139.13H74.311C75.275 139.13 76.056 139.911 76.056 140.874C76.056 141.838 75.275 142.618 74.311 142.618H1.746C0.782 142.618 0 141.838 0 140.874V46.596C0 45.633 0.782 44.851 1.746 44.851C2.71 44.851 3.491 45.632 3.491 46.596V139.13Z" fill="#030448"/>
<path d="M52.846 152.986C52.846 156.13 50.296 158.678 47.151 158.678C44.007 158.678 41.457 156.129 41.457 152.986C41.457 149.843 44.008 147.294 47.151 147.294C50.297 147.294 52.846 149.843 52.846 152.986Z" stroke="#030C16" stroke-width="2" stroke-linecap="round" stroke-linejoin="round"/>
</svg>
